<svg width="240" height="118" viewBox="0 0 240 118" fill="none" xmlns="http://www.w3.org/2000/svg">
<path d="M44.0312 31.6875C44 32.0312 43.9688 32.3906 43.9375 32.7656C43.8125 33.1406 43.7344 33.375 43.7031 33.4688C43.7031 33.5312 43.7031 33.5938 43.7031 33.6562C43.6406 33.9062 43.5781 34.0781 43.5156 34.1719C43.4844 34.2656 43.5 34.3281 43.5625 34.3594C43.5 34.4531 43.4375 34.5625 43.375 34.6875C43.3438 34.7812 43.3281 34.9062 43.3281 35.0625C43.0781 35.4062 42.8906 35.6406 42.7656 35.7656C42.6406 35.8594 42.5156 35.9531 42.3906 36.0469C42.2656 36.2656 42.1719 36.4062 42.1094 36.4688C42.0781 36.5 42.0312 36.5469 41.9688 36.6094C41.5938 37.0156 41.2969 37.2812 41.0781 37.4062C40.7656 37.5312 40.5469 37.7188 40.4219 37.9688C40.2031 38.0938 40.0625 38.1875 40 38.25C39.9375 38.3125 39.8594 38.375 39.7656 38.4375C39.7031 38.5 39.6094 38.5469 39.4844 38.5781C39.3906 38.5781 39.3125 38.6094 39.25 38.6719C39.1562 38.8281 39.0469 38.9219 38.9219 38.9531C38.8281 38.9844 38.7344 39 38.6406 39C38.3281 39.1875 38.1562 39.2969 38.125 39.3281C37.7812 39.3594 37.6094 39.4531 37.6094 39.6094C37.3281 39.6406 37.1719 39.6875 37.1406 39.75C37.1406 39.8125 37.1094 39.875 37.0469 39.9375C36.6719 40 36.4844 40.0781 36.4844 40.1719C36.5156 40.2344 36.5 40.2812 36.4375 40.3125C36.0938 40.3125 35.9219 40.3281 35.9219 40.3594C35.9219 40.3594 35.8906 40.375 35.8281 40.4062C35.4531 40.5 35.2344 40.6094 35.1719 40.7344C34.9219 40.6719 34.75 40.7031 34.6562 40.8281C34.5625 40.9219 34.4375 41 34.2812 41.0625C34 41.1562 33.8125 41.2188 33.7188 41.25C33.4062 41.4062 33.2188 41.4844 33.1562 41.4844C32.9062 41.5156 32.7656 41.5469 32.7344 41.5781C32.7344 41.6094 32.7031 41.625 32.6406 41.625C32.4531 41.6562 32.3281 41.7031 32.2656 41.7656C32.2031 41.7969 32.1406 41.8125 32.0781 41.8125C31.9531 41.875 31.8281 41.9062 31.7031 41.9062C31.6094 41.875 31.5 41.8906 31.375 41.9531C31.1562 42.0156 30.9531 42.0938 30.7656 42.1875C30.6094 42.25 30.4375 42.25 30.25 42.1875C29.9375 42.2812 29.75 42.3125 29.6875 42.2812C29.6562 42.25 29.5938 42.2656 29.5 42.3281C29.0625 42.5156 28.75 42.6406 28.5625 42.7031C28.375 42.7344 28.1562 42.75 27.9062 42.75C27.8125 42.9375 27.625 43.0469 27.3438 43.0781C27.0938 43.0781 26.8594 43.0938 26.6406 43.125C26.2031 43.4688 26.0156 43.8906 26.0781 44.3906C26.0156 44.4531 25.9688 44.5625 25.9375 44.7188C25.9062 44.8438 25.9062 44.9375 25.9375 45C25.8125 45.3438 25.7188 45.5625 25.6562 45.6562C25.5938 45.75 25.5781 45.875 25.6094 46.0312C25.5156 46.2812 25.4844 46.4219 25.5156 46.4531C25.5469 46.4531 25.5625 46.4844 25.5625 46.5469C25.4375 46.7344 25.4062 46.8594 25.4688 46.9219C25.5312 46.9844 25.5625 47.0312 25.5625 47.0625C25.5312 47.4062 25.5156 47.5938 25.5156 47.625C25.4219 48.0625 25.4062 48.4375 25.4688 48.75C25.5625 49.0312 25.5469 49.2656 25.4219 49.4531C25.3906 49.6719 25.3594 49.875 25.3281 50.0625C25.3281 50.2188 25.2969 50.3281 25.2344 50.3906C25.2656 50.6094 25.2969 50.8281 25.3281 51.0469C25.3594 51.2344 25.3281 51.4219 25.2344 51.6094C25.2969 51.9844 25.2812 52.1875 25.1875 52.2188C25.2188 52.5625 25.2656 52.8281 25.3281 53.0156C25.3906 53.1719 25.4219 53.3594 25.4219 53.5781C25.3906 53.8906 25.375 54.125 25.375 54.2812C25.4062 54.4375 25.4219 54.5938 25.4219 54.75C25.4531 55.1562 25.4688 55.4219 25.4688 55.5469C25.5 55.6406 25.5312 55.7344 25.5625 55.8281C25.5 56.0781 25.4688 56.2969 25.4688 56.4844C25.5 56.6406 25.4844 56.7656 25.4219 56.8594C25.5156 57.1406 25.5625 57.3125 25.5625 57.375C25.5938 57.4062 25.6094 57.4062 25.6094 57.375C25.6094 57.6562 25.625 57.8594 25.6562 57.9844C25.6875 58.1094 25.7031 58.25 25.7031 58.4062C25.6719 58.75 25.6719 59 25.7031 59.1562C25.7344 59.3125 25.7812 59.4375 25.8438 59.5312C25.7812 59.875 25.7812 60.0469 25.8438 60.0469C25.9375 60.0156 25.9688 60.0312 25.9375 60.0938C25.875 60.25 25.875 60.4062 25.9375 60.5625C26 60.6875 25.9844 60.8281 25.8906 60.9844C25.9531 61.0781 26 61.1875 26.0312 61.3125C26.0938 61.4375 26.0938 61.5625 26.0312 61.6875C26.125 62.0938 26.1562 62.3438 26.125 62.4375C26.125 62.5312 26.1562 62.6094 26.2188 62.6719C26.1875 62.8906 26.1875 63.0781 26.2188 63.2344C26.25 63.3906 26.2656 63.5469 26.2656 63.7031C26.2656 63.8281 26.2812 63.9531 26.3125 64.0781C26.375 64.2031 26.375 64.3125 26.3125 64.4062C26.3438 64.625 26.375 64.7656 26.4062 64.8281C26.4688 64.8594 26.4688 64.8906 26.4062 64.9219C26.4688 65.0156 26.5156 65.0938 26.5469 65.1562C26.6094 65.2188 26.6406 65.2969 26.6406 65.3906C26.4844 65.6719 26.4219 65.8281 26.4531 65.8594C26.5156 65.8594 26.5469 65.8906 26.5469 65.9531C26.6094 66.2656 26.625 66.4375 26.5938 66.4688C26.5938 66.5 26.6094 66.5469 26.6406 66.6094C26.7344 66.8906 26.7656 67.0625 26.7344 67.125C26.7031 67.1562 26.7031 67.2031 26.7344 67.2656C26.7969 67.5156 26.8281 67.7031 26.8281 67.8281C26.8281 67.9219 26.8594 68.0156 26.9219 68.1094C26.8906 68.3281 26.875 68.4844 26.875 68.5781C26.875 68.6719 26.8906 68.7656 26.9219 68.8594C26.9531 68.9844 27 69.1094 27.0625 69.2344C27.125 69.3594 27.1406 69.5312 27.1094 69.75C27.0469 70.0312 27.0156 70.1875 27.0156 70.2188C27.0469 70.2812 27.0781 70.3438 27.1094 70.4062C26.9531 70.7188 26.9219 70.8594 27.0156 70.8281C27.1094 70.8281 27.1562 70.8594 27.1562 70.9219C27.125 71.1406 27.1094 71.2969 27.1094 71.3906C27.1406 71.5156 27.1719 71.6875 27.2031 71.9062C27.2031 72.2188 27.2344 72.3906 27.2969 72.4219C27.2344 72.6719 27.2188 72.9062 27.25 73.125C27.2812 73.3438 27.2812 73.5781 27.25 73.8281C27.1875 74.1719 27.1406 74.3438 27.1094 74.3438C27.1094 74.3438 27.1094 74.375 27.1094 74.4375L27.1562 75.2812C27.0312 75.7188 26.9531 76 26.9219 76.125C26.8906 76.2188 26.875 76.4062 26.875 76.6875C26.8125 76.9375 26.7188 77.1875 26.5938 77.4375C26.5 77.6875 26.4219 77.9375 26.3594 78.1875C26.2344 78.5625 26.0625 78.8281 25.8438 78.9844C25.625 79.1406 25.5 79.4062 25.4688 79.7812C25.1562 79.875 24.9375 80.0312 24.8125 80.25C24.625 80.2188 24.5156 80.25 24.4844 80.3438C24.4531 80.4688 24.3594 80.5312 24.2031 80.5312C23.9531 80.7188 23.7969 80.9219 23.7344 81.1406C23.3906 81.2969 23.1875 81.4062 23.125 81.4688C23.0625 81.5312 22.9688 81.5938 22.8438 81.6562C22.7188 81.7188 22.5938 81.7812 22.4688 81.8438C22.3438 81.9375 22.25 82.0781 22.1875 82.2656C21.8438 82.3906 21.6406 82.4688 21.5781 82.5C21.5156 82.5312 21.4531 82.5625 21.3906 82.5938C21.0469 82.7812 20.8125 82.9219 20.6875 83.0156C20.5625 83.1094 20.3906 83.1562 20.1719 83.1562C20.0469 83.2188 19.9375 83.2969 19.8438 83.3906C19.7812 83.4844 19.6562 83.5156 19.4688 83.4844C19.2188 83.6719 19.0469 83.7656 18.9531 83.7656C18.8594 83.7656 18.7344 83.7812 18.5781 83.8125C18.3281 83.9062 18.1875 83.9688 18.1562 84C18.125 84.0625 18.0781 84.0938 18.0156 84.0938C17.5156 84.2188 17.0938 84.2656 16.75 84.2344C16.4375 84.2031 16.1562 84.1562 15.9062 84.0938C15.6875 84 15.5469 83.9688 15.4844 84C15.4531 84.0312 15.4062 84.0156 15.3438 83.9531C14.9375 83.7656 14.625 83.6406 14.4062 83.5781C14.2188 83.5156 14.0625 83.4062 13.9375 83.25C13.6875 83.3125 13.5312 83.2656 13.4688 83.1094C13.4062 82.9844 13.2656 82.9219 13.0469 82.9219C12.8906 82.7344 12.7969 82.5938 12.7656 82.5C12.7344 82.4375 12.6562 82.4062 12.5312 82.4062C12.5 82.25 12.3906 82.0781 12.2031 81.8906C11.9531 81.6406 11.7812 81.4531 11.6875 81.3281C11.5938 81.2344 11.5156 81.1094 11.4531 80.9531C11.3281 80.7031 11.2344 80.5469 11.1719 80.4844C11.1406 80.4219 11.1562 80.3594 11.2188 80.2969C11.0938 80.0469 10.9688 79.8906 10.8438 79.8281C10.875 79.7031 10.8438 79.5781 10.75 79.4531C10.6875 79.3281 10.5781 79.2656 10.4219 79.2656C10.4844 79.1719 10.5 79.0625 10.4688 78.9375C10.4688 78.8125 10.4375 78.7188 10.375 78.6562C10.2812 78.0625 10.25 77.6719 10.2812 77.4844C10.3125 77.3281 10.3438 77.125 10.375 76.875C10.375 76.4688 10.3906 76.1875 10.4219 76.0312C10.4531 75.875 10.4844 75.7656 10.5156 75.7031C10.5469 75.4531 10.5625 75.2812 10.5625 75.1875C10.5938 75.125 10.6562 75.0625 10.75 75C10.6875 74.9375 10.6562 74.8594 10.6562 74.7656C10.6875 74.6719 10.6875 74.5469 10.6562 74.3906C10.7188 74.2969 10.7969 74.2188 10.8906 74.1562C10.9844 74.0938 11.0312 73.9844 11.0312 73.8281C11.1875 73.5156 11.2188 73.3438 11.125 73.3125C11.0625 73.3125 11 73.2812 10.9375 73.2188C10.9375 72.9688 11 72.7656 11.125 72.6094C11.25 72.4844 11.3438 72.3125 11.4062 72.0938C11.7188 71.9062 11.9062 71.7188 11.9688 71.5312C12.0625 71.3438 12.2344 71.2344 12.4844 71.2031C12.5469 71.0156 12.6562 70.8906 12.8125 70.8281C13 70.7969 13.1094 70.6875 13.1406 70.5C13.4844 70.375 13.75 70.25 13.9375 70.125C14.125 70.0312 14.2969 69.9062 14.4531 69.75C14.6094 69.6562 14.7031 69.5781 14.7344 69.5156C14.7969 69.4844 14.875 69.4688 14.9688 69.4688C15.1875 69.2812 15.3125 69.1875 15.3438 69.1875C15.375 69.2188 15.4219 69.2188 15.4844 69.1875C15.7969 68.9062 16 68.7656 16.0938 68.7656C16.1875 68.7344 16.2656 68.6875 16.3281 68.625C16.7656 68.5938 17.1406 68.4375 17.4531 68.1562C17.7969 68.0938 18 68.0781 18.0625 68.1094C18.125 68.1094 18.1875 68.125 18.25 68.1562C18.8125 68.25 19.2031 68.375 19.4219 68.5312C19.6719 68.6562 19.9531 68.75 20.2656 68.8125C20.4219 68.9062 20.5 68.9844 20.5 69.0469C20.5312 69.1406 20.5781 69.2031 20.6406 69.2344C20.6406 69.3906 20.6562 69.5 20.6875 69.5625C20.75 69.625 20.7969 69.7031 20.8281 69.7969C20.8281 70.1406 20.8438 70.3125 20.875 70.3125C20.9375 70.3125 20.9688 70.3281 20.9688 70.3594C20.9688 70.4531 20.9688 70.5469 20.9688 70.6406C21 70.7344 20.9531 70.8125 20.8281 70.875C20.8594 71.0312 20.875 71.2969 20.875 71.6719C20.625 71.9844 20.4531 72.1562 20.3594 72.1875C20.2656 72.2188 20.2031 72.2969 20.1719 72.4219C19.9844 72.4844 19.8438 72.5469 19.75 72.6094C19.6875 72.7031 19.6094 72.7812 19.5156 72.8438C19.2031 73.125 19.0156 73.2656 18.9531 73.2656C18.9219 73.2656 18.8906 73.2812 18.8594 73.3125C18.5469 73.4375 18.3438 73.4844 18.25 73.4531C18.1562 73.4531 18.1094 73.375 18.1094 73.2188C17.9531 73.0938 17.8438 73 17.7812 72.9375C17.7188 72.875 17.7188 72.7969 17.7812 72.7031L17.5938 72.0938C17.4062 71.7812 17.2969 71.625 17.2656 71.625C17.2344 71.625 17.1875 71.6094 17.125 71.5781C16.9062 71.3281 16.6875 71.2031 16.4688 71.2031C16.375 71.1719 16.2344 71.1875 16.0469 71.25C15.8906 71.3438 15.7188 71.3594 15.5312 71.2969C15.3125 71.4219 15.1406 71.5 15.0156 71.5312C14.9219 71.5938 14.8438 71.6562 14.7812 71.7188C14.5938 71.875 14.4219 72.0312 14.2656 72.1875C14.1094 72.4375 14.0312 72.5938 14.0312 72.6562C14.0312 72.75 14 72.8125 13.9375 72.8438C14 73 13.9844 73.1406 13.8906 73.2656C13.7969 73.4219 13.7969 73.5781 13.8906 73.7344C13.7969 74.2344 13.7031 74.5781 13.6094 74.7656C13.5781 74.9219 13.5781 75.0469 13.6094 75.1406C13.6719 75.2656 13.6562 75.4062 13.5625 75.5625C13.5938 75.8438 13.625 76 13.6562 76.0312C13.6875 76.0938 13.7031 76.1562 13.7031 76.2188C13.7344 76.5312 13.7344 76.6875 13.7031 76.6875C13.7031 76.6875 13.7031 76.7031 13.7031 76.7344C13.7344 76.8594 13.7812 76.9688 13.8438 77.0625C13.9062 77.1562 13.9062 77.25 13.8438 77.3438C14.0312 77.5625 14.0938 77.7188 14.0312 77.8125C14 77.9062 14.0156 78 14.0781 78.0938C14.3281 78.3125 14.4688 78.4688 14.5 78.5625C14.5312 78.6562 14.6094 78.7188 14.7344 78.75C14.8594 78.9688 14.9219 79.1094 14.9219 79.1719C14.9531 79.2344 15 79.2969 15.0625 79.3594C15.1875 79.4219 15.2812 79.5781 15.3438 79.8281C15.625 80.0469 15.8438 80.1875 16 80.25C16.1562 80.3438 16.2656 80.4688 16.3281 80.625C16.5781 80.75 16.7188 80.7969 16.75 80.7656C16.7812 80.7344 16.8281 80.7188 16.8906 80.7188C17.1719 80.9375 17.3281 81.0312 17.3594 81C17.3906 81 17.4375 81.0156 17.5 81.0469C17.6562 81.1719 17.8281 81.2344 18.0156 81.2344C18.2344 81.3281 18.375 81.3594 18.4375 81.3281C18.5 81.2969 18.5781 81.2812 18.6719 81.2812C18.9844 81.4062 19.2188 81.4375 19.375 81.375C19.7188 81.3125 19.9375 81.2656 20.0312 81.2344C20.4062 81.1094 20.625 81 20.6875 80.9062C21.0938 80.8438 21.3906 80.75 21.5781 80.625C21.7344 80.6562 21.8438 80.625 21.9062 80.5312C22 80.4688 22.1094 80.4062 22.2344 80.3438C22.4844 80.0312 22.625 79.8594 22.6562 79.8281C22.6875 79.7969 22.7188 79.7188 22.75 79.5938C22.9688 79.3125 23.1406 79.0781 23.2656 78.8906C23.3594 78.4219 23.4375 78.1406 23.5 78.0469C23.5938 77.9844 23.6094 77.8594 23.5469 77.6719C23.6094 77.2969 23.6406 77 23.6406 76.7812C23.6406 76.5625 23.7031 76.375 23.8281 76.2188C23.7969 76.125 23.7812 76 23.7812 75.8438C23.8125 75.7188 23.8281 75.5781 23.8281 75.4219C23.8906 75.0781 23.9062 74.8438 23.875 74.7188C23.875 74.5938 23.9219 74.5 24.0156 74.4375C23.9531 74.3438 23.9219 74.25 23.9219 74.1562C23.9219 74.0938 23.9062 73.9844 23.875 73.8281C23.875 73.6719 23.8594 73.5469 23.8281 73.4531C23.8281 73.3906 23.8594 73.3125 23.9219 73.2188C23.8594 73.0938 23.8438 72.9688 23.875 72.8438C23.9062 72.75 23.9062 72.625 23.875 72.4688C23.8125 72.1562 23.7812 71.9688 23.7812 71.9062C23.8125 71.875 23.8281 71.8281 23.8281 71.7656C23.8594 71.6719 23.8594 71.5625 23.8281 71.4375C23.7969 71.3438 23.7812 71.2656 23.7812 71.2031C23.7812 71.1094 23.7969 71 23.8281 70.875C23.8594 70.7812 23.8281 70.6875 23.7344 70.5938C23.7656 70.3438 23.7656 70.2031 23.7344 70.1719C23.7031 70.1406 23.6719 70.0938 23.6406 70.0312C23.6719 69.8438 23.6719 69.6406 23.6406 69.4219C23.6094 69.2344 23.5781 69.0312 23.5469 68.8125C23.5469 68.6562 23.5469 68.5156 23.5469 68.3906C23.5781 68.2656 23.5469 68.1562 23.4531 68.0625C23.5156 67.8125 23.5156 67.6094 23.4531 67.4531C23.3906 67.2656 23.3906 67.0469 23.4531 66.7969C23.4531 66.3906 23.375 66.1406 23.2188 66.0469C23.3125 65.7344 23.2812 65.4688 23.125 65.25C23.125 65.125 23.125 65 23.125 64.875C23.1562 64.75 23.1719 64.625 23.1719 64.5C23.0781 64.125 23 63.8906 22.9375 63.7969C22.9062 63.7031 22.8594 63.625 22.7969 63.5625C22.8594 63.3438 22.875 63.2188 22.8438 63.1875C22.8438 63.125 22.8438 63.0625 22.8438 63C22.7188 62.6875 22.6875 62.4219 22.75 62.2031C22.6875 62.0781 22.6562 61.9531 22.6562 61.8281C22.6562 61.7031 22.6406 61.5625 22.6094 61.4062C22.6094 61.3125 22.5938 61.2344 22.5625 61.1719C22.5312 61.0781 22.5156 60.9531 22.5156 60.7969C22.4844 60.5469 22.4531 60.4219 22.4219 60.4219C22.3906 60.3906 22.375 60.3438 22.375 60.2812C22.3438 59.8438 22.3281 59.5781 22.3281 59.4844C22.3594 59.3594 22.3594 59.2188 22.3281 59.0625C22.2656 58.875 22.2188 58.6562 22.1875 58.4062C22.1562 58.1562 22.1562 57.9062 22.1875 57.6562C22.1562 57.5938 22.1406 57.4219 22.1406 57.1406C22.1406 56.8594 22.1406 56.6406 22.1406 56.4844C22.1406 56.1719 22.1406 55.9844 22.1406 55.9219C22.1719 55.8594 22.1719 55.7812 22.1406 55.6875C22.0469 55.5 22.0156 55.3594 22.0469 55.2656C22.0781 55.1406 22.0938 55.0156 22.0938 54.8906C22.0938 54.7969 22.0781 54.7188 22.0469 54.6562C22.0156 54.5625 22 54.4688 22 54.375C22.125 53.9688 22.1406 53.7188 22.0469 53.625C21.9531 53.5312 21.9062 53.4219 21.9062 53.2969C21.9062 52.8906 21.9062 52.5469 21.9062 52.2656C21.9062 51.9844 21.9062 51.7344 21.9062 51.5156C21.9375 51.1719 21.9531 50.9531 21.9531 50.8594C21.9844 50.7656 22 50.6875 22 50.625C21.9688 50.1875 21.9531 49.9062 21.9531 49.7812C21.9844 49.625 21.9688 49.4688 21.9062 49.3125C21.9688 49.1875 22.0156 49.0469 22.0469 48.8906C22.0781 48.7031 22.0625 48.5312 22 48.375C22 48.0312 22.0156 47.8281 22.0469 47.7656C22.0781 47.6719 22.0312 47.6094 21.9062 47.5781C22 47.4844 22.0781 47.3281 22.1406 47.1094C22.2031 46.9219 22.2344 46.7344 22.2344 46.5469C22.3594 46.1406 22.4531 45.875 22.5156 45.75C22.5781 45.625 22.6562 45.5156 22.75 45.4219C22.8438 45.1719 22.9375 44.9375 23.0312 44.7188C23.125 44.5 23.25 44.3125 23.4062 44.1562C23.4688 44.0625 23.5312 43.9844 23.5938 43.9219C23.6562 43.8594 23.6719 43.75 23.6406 43.5938C23.4531 43.5312 23.3281 43.5 23.2656 43.5C23.2344 43.4688 23.1875 43.4531 23.125 43.4531C22.8438 43.5781 22.6562 43.6406 22.5625 43.6406C22.5 43.6094 22.4375 43.625 22.375 43.6875C22.0312 43.5625 21.6094 43.5625 21.1094 43.6875C20.6719 43.875 20.3906 43.9531 20.2656 43.9219C20.1719 43.8906 20.0781 43.9062 19.9844 43.9688C19.7031 43.9375 19.5469 43.9219 19.5156 43.9219C19.4844 43.8906 19.4531 43.875 19.4219 43.875C19.0469 44.0625 18.7812 44.1562 18.625 44.1562C18.4688 44.125 18.3438 44.1406 18.25 44.2031C18.0938 44.1406 17.9531 44.1406 17.8281 44.2031C17.7344 44.2344 17.5938 44.2344 17.4062 44.2031C17.0312 44.3594 16.8281 44.4531 16.7969 44.4844C16.7656 44.4844 16.7188 44.5156 16.6562 44.5781C16.3438 44.5781 16.0781 44.5938 15.8594 44.625C15.6719 44.625 15.4062 44.6094 15.0625 44.5781C15 44.6406 14.9531 44.7188 14.9219 44.8125C14.8906 44.875 14.8125 44.9219 14.6875 44.9531C14.5938 45.2031 14.5469 45.3906 14.5469 45.5156C14.5781 45.6094 14.5938 45.7188 14.5938 45.8438C14.5625 46.0312 14.5156 46.2031 14.4531 46.3594C14.3906 46.5156 14.3906 46.6562 14.4531 46.7812C14.3281 47.2188 14.25 47.4531 14.2188 47.4844C14.1875 47.4844 14.2031 47.5469 14.2656 47.6719C14.1719 47.7344 14.125 47.8281 14.125 47.9531C14.1562 48.0469 14.1562 48.1406 14.125 48.2344C14.0312 48.5469 13.9688 48.7188 13.9375 48.75C13.9062 48.7812 13.8906 48.8281 13.8906 48.8906C13.8281 49.1406 13.7969 49.3125 13.7969 49.4062C13.7344 49.5 13.6719 49.6094 13.6094 49.7344C13.5781 49.8594 13.5781 50 13.6094 50.1562C13.4219 50.25 13.3281 50.4375 13.3281 50.7188C13.2031 50.8125 13.1094 50.9531 13.0469 51.1406C13.0156 51.2969 12.9219 51.4219 12.7656 51.5156C12.7344 51.6719 12.6875 51.8281 12.625 51.9844C12.5625 52.1094 12.5 52.2031 12.4375 52.2656C12.3125 52.5156 12.2344 52.6719 12.2031 52.7344C12.1719 52.7656 12.1719 52.8438 12.2031 52.9688C12.0781 53.2812 11.9531 53.4531 11.8281 53.4844C11.7344 53.4844 11.7031 53.5625 11.7344 53.7188C11.5156 54.0625 11.375 54.2656 11.3125 54.3281C11.2812 54.3594 11.2812 54.4219 11.3125 54.5156C10.9062 54.9219 10.6562 55.2188 10.5625 55.4062C10.4688 55.5625 10.3281 55.6875 10.1406 55.7812C10.0156 56.0312 9.89062 56.2188 9.76562 56.3438C9.54688 56.6875 9.42188 56.8594 9.39062 56.8594C9.35938 56.8594 9.34375 56.8906 9.34375 56.9531C8.90625 57.1094 8.65625 57.25 8.59375 57.375C8.53125 57.5 8.48438 57.6562 8.45312 57.8438C8.32812 57.8125 8.23438 57.8594 8.17188 57.9844C8.10938 58.0781 8.04688 58.1562 7.98438 58.2188L7.46875 58.4062C7.28125 58.6875 7.10938 58.8594 6.95312 58.9219C6.76562 59.1719 6.60938 59.3281 6.48438 59.3906C6.39062 59.4531 6.3125 59.5469 6.25 59.6719C5.9375 59.7656 5.76562 59.875 5.73438 60C5.70312 60.0938 5.625 60.1406 5.5 60.1406C5.3125 60.2969 5.17188 60.4219 5.07812 60.5156C5.01562 60.5781 4.9375 60.6406 4.84375 60.7031C4.59375 60.6719 4.40625 60.7188 4.28125 60.8438C4.0625 60.875 3.89062 60.8906 3.76562 60.8906C3.60938 60.8906 3.45312 60.9219 3.29688 60.9844C3.20312 60.9531 3.125 60.9219 3.0625 60.8906C2.96875 60.8281 2.89062 60.7812 2.82812 60.75C2.70312 60.6875 2.57812 60.6719 2.45312 60.7031C2.32812 60.7031 2.20312 60.6875 2.07812 60.6562C1.67188 60.5 1.4375 60.3906 1.375 60.3281C1.28125 60.2656 1.20312 60.2031 1.14062 60.1406C1.10938 59.8906 0.953125 59.7031 0.671875 59.5781C0.546875 59.2969 0.5 59.1562 0.53125 59.1562C0.5625 59.125 0.578125 59.0938 0.578125 59.0625C0.453125 58.7188 0.375 58.5312 0.34375 58.5C0.3125 58.4375 0.28125 58.3594 0.25 58.2656C0.21875 58.1719 0.21875 58.0938 0.25 58.0312C0.25 57.9375 0.25 57.8281 0.25 57.7031C0.21875 57.5781 0.1875 57.4844 0.15625 57.4219C0.125 57.3594 0.140625 57.25 0.203125 57.0938C0.234375 56.9688 0.28125 56.7188 0.34375 56.3438C0.3125 55.9688 0.34375 55.7188 0.4375 55.5938C0.53125 55.4688 0.546875 55.3281 0.484375 55.1719C0.546875 55.0469 0.609375 54.9219 0.671875 54.7969C0.734375 54.6406 0.734375 54.4844 0.671875 54.3281C0.703125 54.2344 0.75 54.1406 0.8125 54.0469C0.84375 53.9531 0.859375 53.8281 0.859375 53.6719C1.07812 53.4531 1.20312 53.2656 1.23438 53.1094C1.32812 52.7656 1.42188 52.5469 1.51562 52.4531C1.60938 52.3281 1.6875 52.2031 1.75 52.0781C1.84375 51.7969 1.90625 51.6562 1.9375 51.6562C1.9375 51.6562 1.95312 51.625 1.98438 51.5625C2.17188 51.3125 2.26562 51.1875 2.26562 51.1875C2.23438 51.1562 2.21875 51.125 2.21875 51.0938C2.5625 50.875 2.76562 50.6406 2.82812 50.3906C3.04688 50.1094 3.20312 49.9531 3.29688 49.9219C3.39062 49.8594 3.4375 49.75 3.4375 49.5938C3.59375 49.6562 3.6875 49.625 3.71875 49.5C3.71875 49.375 3.79688 49.3125 3.95312 49.3125C4.17188 49 4.28125 48.8125 4.28125 48.75C4.53125 48.5938 4.67188 48.5 4.70312 48.4688C4.73438 48.4062 4.75 48.3438 4.75 48.2812C5.125 47.9062 5.45312 47.625 5.73438 47.4375C6.01562 47.25 6.25 47.0156 6.4375 46.7344C6.6875 46.7031 6.92188 46.5156 7.14062 46.1719C7.29688 46.1719 7.42188 46.1094 7.51562 45.9844C7.60938 45.8594 7.70312 45.7656 7.79688 45.7031C8.17188 45.4844 8.40625 45.3438 8.5 45.2812C8.8125 45.0938 9.01562 44.9844 9.10938 44.9531C9.39062 44.7344 9.5625 44.625 9.625 44.625C9.71875 44.5312 9.82812 44.3906 9.95312 44.2031C10.0469 44.2656 10.1406 44.25 10.2344 44.1562C10.3281 44.0312 10.4062 43.9688 10.4688 43.9688C10.6562 43.9688 10.7812 43.9219 10.8438 43.8281C10.9375 43.7344 11.0469 43.625 11.1719 43.5C10.9844 43.1875 10.8906 43.0156 10.8906 42.9844C10.8906 42.9219 10.875 42.8594 10.8438 42.7969C10.75 42.5156 10.6719 42.3438 10.6094 42.2812C10.5781 42.2188 10.5312 42.1562 10.4688 42.0938C10.4688 41.9688 10.4531 41.875 10.4219 41.8125C10.4219 41.75 10.4219 41.6562 10.4219 41.5312C10.3594 41.375 10.2656 41.25 10.1406 41.1562C10.0156 41.0312 9.92188 40.8594 9.85938 40.6406C9.57812 40.0156 9.34375 39.6562 9.15625 39.5625C8.71875 39.3125 8.42188 39.0781 8.26562 38.8594C8.07812 38.7969 7.9375 38.7812 7.84375 38.8125C7.75 38.8125 7.71875 38.75 7.75 38.625C7.65625 38.6562 7.5625 38.6406 7.46875 38.5781C7.375 38.5156 7.28125 38.4531 7.1875 38.3906C6.875 38.2656 6.6875 38.2031 6.625 38.2031C6.5625 38.2031 6.5 38.1719 6.4375 38.1094C6.34375 38.0156 6.26562 38.0156 6.20312 38.1094C6.17188 38.1719 6.07812 38.2344 5.92188 38.2969C5.57812 38.3594 5.35938 38.4219 5.26562 38.4844C5.20312 38.5156 5.09375 38.5312 4.9375 38.5312C4.875 38.4688 4.8125 38.3906 4.75 38.2969C4.71875 38.2031 4.67188 38.125 4.60938 38.0625C4.76562 37.7812 4.84375 37.5938 4.84375 37.5C5.1875 37.2188 5.39062 37.0781 5.45312 37.0781C5.48438 36.9531 5.53125 36.8594 5.59375 36.7969C5.6875 36.7031 5.75 36.5781 5.78125 36.4219C5.875 36.4219 5.95312 36.3906 6.01562 36.3281C6.07812 36.2344 6.14062 36.1562 6.20312 36.0938C6.45312 35.9062 6.64062 35.7969 6.76562 35.7656C6.92188 35.7031 7.07812 35.6406 7.23438 35.5781C7.48438 35.5156 7.625 35.4844 7.65625 35.4844C7.71875 35.4531 7.78125 35.4375 7.84375 35.4375C8 35.4062 8.15625 35.3906 8.3125 35.3906C8.46875 35.3906 8.625 35.3906 8.78125 35.3906L9.4375 35.625C9.78125 35.8125 9.98438 35.9844 10.0469 36.1406C10.1094 36.2656 10.25 36.2969 10.4688 36.2344C10.5625 36.3594 10.6875 36.4688 10.8438 36.5625C11.0312 36.625 11.2031 36.6406 11.3594 36.6094C11.6094 36.8281 11.7344 36.9688 11.7344 37.0312C11.7344 37.0625 11.7656 37.0938 11.8281 37.125C12.1406 37.3438 12.2969 37.5 12.2969 37.5938C12.2969 37.6875 12.3281 37.7812 12.3906 37.875C12.5156 38.0625 12.5938 38.1875 12.625 38.25C12.6562 38.2812 12.7031 38.3281 12.7656 38.3906C12.9844 38.7656 13.125 39.0469 13.1875 39.2344C13.2812 39.3906 13.4062 39.5469 13.5625 39.7031C13.75 40.1094 13.8594 40.4375 13.8906 40.6875C13.9844 41 14.0469 41.2031 14.0781 41.2969C14.1406 41.6719 14.1875 41.9219 14.2188 42.0469C14.2812 42.1406 14.3438 42.2344 14.4062 42.3281C14.6562 42.3281 14.8438 42.3281 14.9688 42.3281C15.125 42.3281 15.2656 42.2656 15.3906 42.1406C15.4531 42.1094 15.6094 42.1094 15.8594 42.1406C16.1094 42.1719 16.3125 42.1719 16.4688 42.1406C16.7188 41.9531 16.875 41.875 16.9375 41.9062C17 41.9062 17.0312 41.8594 17.0312 41.7656C17.4062 41.7656 17.625 41.7188 17.6875 41.625C17.8438 41.6562 18.0312 41.6406 18.25 41.5781L18.8594 41.4844C19.1719 41.4531 19.3438 41.4219 19.375 41.3906C19.4375 41.3281 19.5 41.2969 19.5625 41.2969L20.0781 41.3438C20.3906 41.3438 20.5781 41.3281 20.6406 41.2969C20.7031 41.2656 20.7969 41.2656 20.9219 41.2969C21.1406 41.2031 21.3125 41.125 21.4375 41.0625C21.7812 41.0312 21.9531 41.0312 21.9531 41.0625C21.9844 41.0625 22.0156 41.0625 22.0469 41.0625C22.4219 41 22.625 40.9844 22.6562 41.0156C22.6875 41.0156 22.7344 41.0156 22.7969 41.0156C23.1719 40.9531 23.3594 40.9375 23.3594 40.9688C23.3906 41 23.4375 41.0156 23.5 41.0156C23.7188 40.9844 23.8438 40.9844 23.875 41.0156C23.9375 41.0156 23.9844 41.0156 24.0156 41.0156C24.2344 40.8594 24.3906 40.7812 24.4844 40.7812C24.6406 40.8125 24.75 40.8281 24.8125 40.8281C24.9062 40.8281 25.0312 40.8594 25.1875 40.9219C25.3438 40.8906 25.4844 40.8594 25.6094 40.8281C25.7656 40.7969 25.8906 40.7344 25.9844 40.6406C26.1406 40.6406 26.3125 40.625 26.5 40.5938C26.7188 40.5625 26.9219 40.5312 27.1094 40.5C27.2031 40.5 27.3125 40.5 27.4375 40.5C27.5625 40.5 27.6562 40.4688 27.7188 40.4062C27.9375 40.3125 28.0625 40.2344 28.0938 40.1719C28.125 40.1094 28.2031 40.1094 28.3281 40.1719C29.1719 40.1719 29.8281 40.125 30.2969 40.0312C30.4219 39.9375 30.5938 39.8906 30.8125 39.8906C30.9375 39.8906 31.0469 39.9062 31.1406 39.9375C31.2344 39.9688 31.3281 39.9531 31.4219 39.8906C31.5156 39.8281 31.5781 39.7969 31.6094 39.7969C31.6719 39.7656 31.7812 39.7188 31.9375 39.6562C32.2812 39.5625 32.4688 39.5 32.5 39.4688C32.5312 39.4375 32.5781 39.4219 32.6406 39.4219C32.9531 39.3906 33.1562 39.3594 33.25 39.3281C33.3438 39.2656 33.4531 39.2344 33.5781 39.2344C33.9844 39.2031 34.25 39.125 34.375 39C34.5312 38.875 34.7656 38.8125 35.0781 38.8125C35.2969 38.6562 35.4219 38.5938 35.4531 38.625C35.4844 38.6562 35.5312 38.6562 35.5938 38.625L36.3438 38.3438C36.7188 38.25 36.9375 38.1875 37 38.1562C37.0625 38.125 37.125 38.0938 37.1875 38.0625C37.4375 37.9688 37.625 37.8906 37.75 37.8281C38.0625 37.6406 38.2344 37.5625 38.2656 37.5938C38.2969 37.5938 38.3281 37.5781 38.3594 37.5469C38.7344 37.3594 38.9688 37.25 39.0625 37.2188C39.5 36.9375 39.75 36.75 39.8125 36.6562C40.125 36.5 40.3281 36.3438 40.4219 36.1875C40.5469 36 40.6875 35.8438 40.8438 35.7188C40.9375 35.5 41.0781 35.3281 41.2656 35.2031C41.2969 35.0469 41.3281 34.9062 41.3594 34.7812C41.3906 34.6562 41.4219 34.5 41.4531 34.3125C41.4531 34 41.4531 33.8281 41.4531 33.7969C41.4844 33.7344 41.5 33.6875 41.5 33.6562C41.3125 33.2812 41.2031 33 41.1719 32.8125C40.9531 32.4375 40.9062 32.1562 41.0312 31.9688C41.25 31.7188 41.3594 31.5781 41.3594 31.5469C41.7031 31.3281 41.9219 31.25 42.0156 31.3125C42.2969 31.0625 42.4531 30.9062 42.4844 30.8438C42.5469 30.7812 42.6562 30.7344 42.8125 30.7031C43.0312 30.7344 43.1719 30.7812 43.2344 30.8438C43.3281 30.875 43.4219 30.875 43.5156 30.8438C43.7031 31.1875 43.8281 31.3906 43.8906 31.4531C43.9531 31.4844 44 31.5625 44.0312 31.6875ZM11.1719 45.8438C11.0469 45.875 10.9531 45.9375 10.8906 46.0312C10.8281 46.0938 10.75 46.1406 10.6562 46.1719C10.4688 46.1719 10.3125 46.25 10.1875 46.4062C10.0625 46.5312 9.90625 46.5625 9.71875 46.5C9.65625 46.5625 9.57812 46.625 9.48438 46.6875C9.42188 46.75 9.3125 46.7656 9.15625 46.7344C8.9375 46.8906 8.76562 46.9844 8.64062 47.0156C8.32812 47.2031 8.14062 47.3594 8.07812 47.4844C8.04688 47.5781 7.9375 47.6094 7.75 47.5781C7.6875 47.6719 7.60938 47.75 7.51562 47.8125C7.42188 47.8438 7.34375 47.8906 7.28125 47.9531C7.09375 48.1406 6.90625 48.2812 6.71875 48.375C6.53125 48.5938 6.39062 48.7188 6.29688 48.75C6.23438 48.7812 6.17188 48.8125 6.10938 48.8438C5.79688 49.1562 5.64062 49.3281 5.64062 49.3594C5.48438 49.6406 5.375 49.8281 5.3125 49.9219C5.25 49.9844 5.1875 50.0625 5.125 50.1562C4.90625 50.3438 4.75 50.4688 4.65625 50.5312C4.5625 50.5625 4.51562 50.6562 4.51562 50.8125C4.39062 50.9688 4.29688 51.0781 4.23438 51.1406C4.20312 51.2031 4.20312 51.3125 4.23438 51.4688C4.14062 51.5938 4.0625 51.7344 4 51.8906C3.90625 52.0469 3.79688 52.1562 3.67188 52.2188C3.60938 52.5625 3.5625 52.8125 3.53125 52.9688C3.46875 53.125 3.40625 53.2656 3.34375 53.3906C3.34375 53.7656 3.35938 54.0469 3.39062 54.2344C3.39062 54.4219 3.34375 54.6094 3.25 54.7969C3.3125 54.9531 3.32812 55.125 3.29688 55.3125C3.23438 55.4688 3.21875 55.625 3.25 55.7812C3.25 55.9375 3.26562 56.0625 3.29688 56.1562C3.29688 56.25 3.3125 56.3438 3.34375 56.4375C3.4375 56.6562 3.5 56.7969 3.53125 56.8594C3.53125 56.9219 3.53125 56.9844 3.53125 57.0469C3.625 57.1094 3.73438 57.1719 3.85938 57.2344C3.95312 57.2969 4.03125 57.3594 4.09375 57.4219C4.40625 57.6094 4.60938 57.7031 4.70312 57.7031C4.79688 57.7031 4.85938 57.7031 4.89062 57.7031C5.17188 57.7969 5.32812 57.8281 5.35938 57.7969C5.39062 57.7656 5.4375 57.7656 5.5 57.7969C5.90625 57.7344 6.14062 57.6875 6.20312 57.6562C6.29688 57.625 6.375 57.5781 6.4375 57.5156C6.5 57.4219 6.59375 57.3906 6.71875 57.4219C6.75 57.2656 6.84375 57.1719 7 57.1406C7.15625 57.1094 7.21875 56.9844 7.1875 56.7656C7.5 56.5156 7.67188 56.375 7.70312 56.3438C7.76562 56.3125 7.8125 56.2656 7.84375 56.2031C8.03125 55.9531 8.14062 55.7656 8.17188 55.6406C8.20312 55.5156 8.29688 55.4219 8.45312 55.3594C8.42188 55.1719 8.46875 55.0469 8.59375 54.9844C8.71875 54.9219 8.76562 54.7812 8.73438 54.5625C8.85938 54.4688 8.96875 54.3594 9.0625 54.2344C9.1875 54.0781 9.25 53.875 9.25 53.625C9.4375 53.3125 9.5625 53.1406 9.625 53.1094C9.6875 53.0469 9.73438 53 9.76562 52.9688C9.89062 52.625 9.98438 52.3906 10.0469 52.2656C10.1094 52.1406 10.1562 51.9844 10.1875 51.7969C10.3438 51.3281 10.4531 51.0312 10.5156 50.9062C10.6094 50.7812 10.6406 50.5625 10.6094 50.25C10.7344 49.875 10.875 49.6406 11.0312 49.5469C10.9688 49.3906 10.9531 49.2656 10.9844 49.1719C11.0156 49.0469 11 48.9062 10.9375 48.75C11.0312 48.7188 11.0781 48.6562 11.0781 48.5625C11.1094 48.4375 11.1719 48.3594 11.2656 48.3281C11.2344 48.2344 11.2344 48.125 11.2656 48C11.3281 47.8438 11.375 47.7188 11.4062 47.625C11.3438 47.1875 11.2969 46.9688 11.2656 46.9688C11.2656 46.9688 11.2969 46.9375 11.3594 46.875C11.3594 46.5 11.3438 46.2656 11.3125 46.1719C11.2812 46.0781 11.2812 45.9688 11.3125 45.8438H11.1719ZM55.5794 28.875C55.5169 29.1562 55.47 29.3281 55.4387 29.3906C55.4075 29.4531 55.3762 29.5312 55.345 29.625C55.095 29.7188 54.9544 29.7812 54.9231 29.8125C54.9231 29.8438 54.8919 29.8906 54.8294 29.9531C54.6106 30.2031 54.47 30.3438 54.4075 30.375C54.3762 30.375 54.3294 30.3906 54.2669 30.4219C53.8606 30.7656 53.4544 31.0156 53.0481 31.1719C52.5169 31.0469 52.0637 30.875 51.6887 30.6562C51.5325 30.7188 51.3762 30.7031 51.22 30.6094C51.0637 30.5156 50.9387 30.4062 50.845 30.2812C50.47 30.375 50.2669 30.4062 50.2356 30.375C50.2044 30.3438 50.1575 30.3125 50.095 30.2812C49.9075 30.3438 49.72 30.375 49.5325 30.375C49.3762 30.375 49.1731 30.375 48.9231 30.375C48.4231 30.4688 48.095 30.5781 47.9387 30.7031C47.7825 30.8281 47.5794 30.9062 47.3294 30.9375C47.0794 31.0625 46.9231 31.1562 46.8606 31.2188C46.8294 31.25 46.7512 31.2812 46.6262 31.3125C46.5325 31.4062 46.4387 31.5156 46.345 31.6406C46.2825 31.7344 46.1887 31.8281 46.0637 31.9219C45.845 32.1094 45.72 32.2344 45.6887 32.2969C45.6887 32.3594 45.6575 32.3906 45.595 32.3906C45.4075 32.6719 45.2981 32.8438 45.2669 32.9062C45.2669 32.9688 45.2356 33 45.1731 33C45.0481 33.1562 44.97 33.2812 44.9387 33.375C44.9387 33.4375 44.8919 33.4688 44.7981 33.4688C44.8294 33.625 44.7981 33.7344 44.7044 33.7969C44.6419 33.8281 44.6106 33.9219 44.6106 34.0781C44.2669 34.6719 43.9387 35.0469 43.6262 35.2031C43.5325 35.4844 43.4387 35.6875 43.345 35.8125C43.2512 35.9062 43.2356 36.0312 43.2981 36.1875C43.1419 36.4688 43.0325 36.625 42.97 36.6562C42.9387 36.6875 42.9231 36.7344 42.9231 36.7969C42.8919 37.0469 42.8606 37.1875 42.8294 37.2188C42.7981 37.25 42.7669 37.2969 42.7356 37.3594C42.6106 37.7031 42.5325 37.9219 42.5012 38.0156C42.47 38.0781 42.4075 38.125 42.3137 38.1562C42.3137 38.4688 42.2356 38.7344 42.0794 38.9531C42.0169 39.0781 41.9856 39.1875 41.9856 39.2812C41.9856 39.375 41.9544 39.5156 41.8919 39.7031C41.8606 39.7656 41.8294 39.8594 41.7981 39.9844C41.7669 40.0781 41.7356 40.1719 41.7044 40.2656C41.6731 40.6406 41.6419 40.8594 41.6106 40.9219C41.5794 40.9531 41.5794 41 41.6106 41.0625C41.5481 41.125 41.5012 41.2031 41.47 41.2969C41.47 41.3906 41.4387 41.4688 41.3762 41.5312C41.3137 41.8125 41.2669 41.9688 41.2356 42C41.2044 42 41.1887 42.0312 41.1887 42.0938C41.095 42.4688 41.0169 42.6562 40.9544 42.6562C40.9231 42.6562 40.8919 42.6719 40.8606 42.7031C40.7669 43.0469 40.72 43.3438 40.72 43.5938C40.72 43.6875 40.72 43.7812 40.72 43.875C40.7512 43.9375 40.7512 44.0469 40.72 44.2031C40.5637 44.5781 40.4856 44.8125 40.4856 44.9062C40.4856 44.9688 40.4544 45 40.3919 45C40.4544 45.1562 40.4231 45.3281 40.2981 45.5156C40.2669 45.7656 40.2669 45.9531 40.2981 46.0781C40.3294 46.2031 40.345 46.3281 40.345 46.4531C40.1887 46.8906 40.1106 47.1719 40.1106 47.2969C40.1106 47.3906 40.0794 47.4688 40.0169 47.5312C40.0481 47.6875 40.0481 47.8594 40.0169 48.0469C39.9856 48.2344 39.9075 48.375 39.7825 48.4688C39.7825 49.0312 39.7825 49.3125 39.7825 49.3125C39.7512 49.4062 39.7044 49.5 39.6419 49.5938C39.6106 49.6562 39.5637 49.7344 39.5012 49.8281C39.595 50.2031 39.5794 50.4531 39.4544 50.5781C39.5169 50.7344 39.5325 50.8906 39.5012 51.0469C39.5012 51.1719 39.5169 51.3281 39.5481 51.5156C39.3919 51.7031 39.3294 51.8281 39.3606 51.8906C39.3919 51.9219 39.4075 51.9844 39.4075 52.0781C39.4387 52.2031 39.4231 52.3125 39.3606 52.4062C39.2981 52.4688 39.2512 52.5625 39.22 52.6875C39.22 52.75 39.22 52.8438 39.22 52.9688C39.2512 53.0625 39.2669 53.1719 39.2669 53.2969C39.2669 53.3906 39.2512 53.4844 39.22 53.5781C39.22 53.6719 39.2356 53.75 39.2669 53.8125C39.2044 54.1562 39.1575 54.4375 39.1262 54.6562C39.1262 54.7812 39.1419 54.9062 39.1731 55.0312C39.2044 55.125 39.2044 55.2188 39.1731 55.3125C39.1731 55.375 39.1575 55.4375 39.1262 55.5C39.095 55.5625 39.0794 55.6719 39.0794 55.8281C39.0481 55.9844 39.0325 56.125 39.0325 56.25C39.0637 56.375 39.0637 56.4688 39.0325 56.5312C38.97 56.7812 38.9231 56.9688 38.8919 57.0938C38.8919 57.1875 38.9231 57.25 38.9856 57.2812C39.0169 57.5625 38.9856 57.7344 38.8919 57.7969C38.8294 57.8594 38.845 58.0312 38.9387 58.3125C38.7825 58.5938 38.7356 58.75 38.7981 58.7812C38.8606 58.8125 38.9075 58.8594 38.9387 58.9219C39.1887 58.8281 39.3137 58.75 39.3137 58.6875C39.345 58.625 39.3919 58.5781 39.4544 58.5469C39.6106 58.1406 39.6887 57.9219 39.6887 57.8906C39.8137 57.5781 39.9231 57.4062 40.0169 57.375C40.1106 57.3125 40.1575 57.2031 40.1575 57.0469C40.22 56.9844 40.2825 56.9219 40.345 56.8594C40.4075 56.7969 40.47 56.7188 40.5325 56.625C40.595 56.5625 40.6419 56.4844 40.6731 56.3906C40.7356 56.2656 40.7512 56.1719 40.72 56.1094C40.8762 56.1094 40.9544 56.0469 40.9544 55.9219C40.9544 55.7656 41.0169 55.6875 41.1419 55.6875C41.1419 55.5312 41.1887 55.4219 41.2825 55.3594C41.3762 55.2969 41.4387 55.1875 41.47 55.0312C41.6262 54.9688 41.7512 54.7969 41.845 54.5156C42.0637 54.2031 42.1887 54.0312 42.22 54C42.2512 53.9375 42.3137 53.9062 42.4075 53.9062C42.47 53.8125 42.5481 53.7188 42.6419 53.625C42.7669 53.5312 42.8606 53.4219 42.9231 53.2969C43.1419 53.2031 43.2512 53.1406 43.2512 53.1094C43.2825 53.0469 43.3294 53 43.3919 52.9688C43.4544 52.9062 43.5169 52.8594 43.5794 52.8281C43.6419 52.7656 43.72 52.7031 43.8137 52.6406C44.1262 52.4531 44.2669 52.3438 44.2356 52.3125C44.2356 52.2812 44.2512 52.25 44.2825 52.2188C44.4387 52.125 44.5637 52.0469 44.6575 51.9844C44.7512 51.9219 44.845 51.875 44.9387 51.8438C45.2512 51.7188 45.4387 51.5938 45.5012 51.4688C45.5637 51.3438 45.7044 51.2812 45.9231 51.2812C46.2356 51.1562 46.4387 51.0781 46.5325 51.0469C46.6262 50.9844 46.7356 50.9688 46.8606 51C47.2044 51.0938 47.4231 51.1562 47.5169 51.1875C47.6419 51.2188 47.7825 51.2031 47.9387 51.1406C48.22 51.2969 48.3919 51.3906 48.4544 51.4219C48.5169 51.4219 48.6106 51.4375 48.7356 51.4688C48.7981 51.8438 48.8606 52.0469 48.9231 52.0781C48.9856 52.0781 49.0325 52.1094 49.0637 52.1719C49.0012 52.4531 49.0325 52.6562 49.1575 52.7812C49.3137 52.875 49.3762 53.0469 49.345 53.2969L49.4856 53.8125C49.6106 54 49.6887 54.2344 49.72 54.5156C49.7512 54.7656 49.7825 55.0156 49.8137 55.2656C49.97 55.6094 50.0637 55.875 50.095 56.0625C50.1262 56.2188 50.1731 56.3438 50.2356 56.4375C50.2356 56.6875 50.2669 56.9062 50.3294 57.0938C50.4231 57.25 50.5012 57.4375 50.5637 57.6562C50.595 57.9375 50.6419 58.1719 50.7044 58.3594C50.7981 58.5156 50.8137 58.6562 50.7512 58.7812C50.8762 59.2812 50.9856 59.6406 51.0794 59.8594C51.1106 59.9844 51.1419 60.0938 51.1731 60.1875C51.2044 60.25 51.22 60.3281 51.22 60.4219C51.1887 60.6406 51.1887 60.7812 51.22 60.8438C51.2825 60.9062 51.2981 60.9844 51.2669 61.0781C51.4856 61.3906 51.5637 61.5781 51.5012 61.6406C51.47 61.6719 51.5325 61.7188 51.6887 61.7812C51.6262 61.9375 51.6106 62.1094 51.6419 62.2969C51.8294 62.6094 51.9387 62.8125 51.97 62.9062C52.0012 62.9688 52.0169 63.0938 52.0169 63.2812C52.0794 63.5625 52.1106 63.7344 52.1106 63.7969C52.1419 63.8281 52.2044 63.8594 52.2981 63.8906C52.3294 64.2656 52.3294 64.4844 52.2981 64.5469C52.2981 64.6094 52.3137 64.6875 52.345 64.7812C52.3762 64.875 52.4075 64.9688 52.4387 65.0625C52.5012 65.125 52.5325 65.2344 52.5325 65.3906C52.5325 65.5156 52.5325 65.6406 52.5325 65.7656C52.5325 65.8906 52.6106 66 52.7669 66.0938C52.7356 66.3438 52.7512 66.4844 52.8137 66.5156C52.8762 66.5469 52.9075 66.5938 52.9075 66.6562C52.9387 67 52.97 67.1875 53.0012 67.2188C53.0637 67.2188 53.1106 67.25 53.1419 67.3125C53.1106 67.4688 53.1262 67.5938 53.1887 67.6875C53.2512 67.7812 53.2825 67.9219 53.2825 68.1094C53.3762 68.1719 53.4231 68.2812 53.4231 68.4375C53.4231 68.5625 53.4544 68.6875 53.5169 68.8125C53.6419 69.1562 53.6887 69.3438 53.6575 69.375C53.6575 69.4375 53.6731 69.5 53.7044 69.5625C53.7669 69.7188 53.845 69.8594 53.9387 69.9844C54.0325 70.1406 54.0637 70.2969 54.0325 70.4531C54.095 70.5469 54.1262 70.6406 54.1262 70.7344C54.1575 70.8281 54.2044 70.9375 54.2669 71.0625C54.3294 71.2188 54.3762 71.3594 54.4075 71.4844C54.47 71.6406 54.5325 71.7969 54.595 71.9531C54.6575 72.0781 54.7044 72.1719 54.7356 72.2344C54.7669 72.3281 54.8137 72.4219 54.8762 72.5156C55.0325 72.8906 55.1262 73.125 55.1575 73.2188C55.1887 73.3438 55.2669 73.4375 55.3919 73.5C55.6106 73.75 55.7512 73.9375 55.8137 74.0625C55.9075 74.1875 56.0325 74.2812 56.1887 74.3438C56.3762 74.5938 56.4856 74.7344 56.5169 74.7656C56.5481 74.8281 56.5794 74.8281 56.6106 74.7656C56.7356 74.9219 56.8762 75.0312 57.0325 75.0938C57.22 75.1875 57.3606 75.3125 57.4544 75.4688C57.7356 75.5625 57.8762 75.625 57.8762 75.6562C57.9075 75.7188 57.9544 75.7656 58.0169 75.7969C58.3294 75.8281 58.5012 75.875 58.5325 75.9375C58.5637 76 58.6262 76.0312 58.72 76.0312L59.47 76.2188C59.7512 76.2188 59.9075 76.2344 59.9387 76.2656C60.0012 76.2969 60.0637 76.3125 60.1262 76.3125C60.2825 76.3125 60.4544 76.2812 60.6419 76.2188C60.8294 76.1562 61.0012 76.1406 61.1575 76.1719L62.0012 75.75C62.095 75.7188 62.1419 75.6406 62.1419 75.5156C62.1731 75.4219 62.2669 75.3906 62.4231 75.4219C62.7356 75.1406 62.9387 74.9688 63.0325 74.9062C63.1575 74.875 63.2981 74.8906 63.4544 74.9531C63.6106 75.2344 63.7044 75.4219 63.7356 75.5156C63.6419 75.6094 63.47 75.6875 63.22 75.75C63.0637 75.9375 63.0012 76.0625 63.0325 76.125C63.0637 76.1875 63.0481 76.25 62.9856 76.3125C62.6106 76.3438 62.345 76.3906 62.1887 76.4531C62.0325 76.5469 61.8919 76.6562 61.7669 76.7812C61.3919 76.875 61.2044 76.9219 61.2044 76.9219C61.0169 77.0781 60.845 77.1562 60.6887 77.1562C60.5637 77.1875 60.4544 77.2344 60.3606 77.2969C59.9544 77.4531 59.7044 77.5625 59.6106 77.625C59.5169 77.6875 59.4231 77.75 59.3294 77.8125C59.1731 77.8125 59.0169 77.8125 58.8606 77.8125C58.7356 77.8438 58.6419 77.9219 58.5794 78.0469C58.3294 78.0469 58.1262 78.0469 57.97 78.0469C57.845 78.0781 57.7044 78.1406 57.5481 78.2344C57.2981 78.1094 57.0794 78.1094 56.8919 78.2344C56.6106 78.1719 56.4231 78.1094 56.3294 78.0469C56.0481 78.1094 55.8137 78.0625 55.6262 77.9062C55.345 77.7188 55.2044 77.6562 55.2044 77.7188C55.2044 77.8125 55.1575 77.8438 55.0637 77.8125C55.0012 77.75 54.9075 77.7031 54.7825 77.6719C54.6575 77.6406 54.5794 77.5625 54.5481 77.4375C54.3606 77.3438 54.2356 77.2656 54.1731 77.2031C54.1106 77.1719 54.0794 77.1094 54.0794 77.0156C53.8606 76.8594 53.6731 76.7812 53.5169 76.7812C53.5481 76.625 53.4856 76.5469 53.3294 76.5469C53.2044 76.5469 53.1106 76.5156 53.0481 76.4531C52.9856 76.3281 52.9075 76.2031 52.8137 76.0781C52.7512 75.9531 52.6887 75.8125 52.6262 75.6562C52.5012 75.4688 52.3919 75.3594 52.2981 75.3281C52.2356 75.3281 52.22 75.2656 52.2512 75.1406C51.97 74.7969 51.8137 74.5781 51.7825 74.4844C51.7825 74.4219 51.7512 74.3594 51.6887 74.2969C51.6262 74.0781 51.5637 73.9531 51.5012 73.9219C51.47 73.8906 51.47 73.8438 51.5012 73.7812C51.345 73.5312 51.2825 73.3906 51.3137 73.3594C51.3762 73.3594 51.4075 73.3125 51.4075 73.2188C51.22 73.0938 51.095 72.9688 51.0325 72.8438C51.0325 72.6875 51.0169 72.5781 50.9856 72.5156C50.9544 72.4531 50.9544 72.3438 50.9856 72.1875C50.6731 71.875 50.595 71.6406 50.7512 71.4844C50.6887 71.3281 50.5481 71.2031 50.3294 71.1094C50.3919 70.9844 50.3762 70.8906 50.2825 70.8281C50.22 70.7656 50.22 70.6875 50.2825 70.5938C50.22 70.5 50.1731 70.375 50.1419 70.2188C50.1106 70.0938 50.0637 69.9531 50.0012 69.7969C49.97 69.7031 49.9231 69.6094 49.8606 69.5156C49.8294 69.4531 49.7981 69.375 49.7669 69.2812C49.8294 68.9375 49.8294 68.7656 49.7669 68.7656C49.7044 68.7656 49.6575 68.7344 49.6262 68.6719C49.5325 68.1719 49.4387 67.8594 49.345 67.7344C49.2825 67.6094 49.2669 67.4219 49.2981 67.1719C49.1731 66.8594 49.1106 66.625 49.1106 66.4688C49.1419 66.3125 49.1106 66.1875 49.0169 66.0938C48.9231 65.75 48.8762 65.5781 48.8762 65.5781C48.9075 65.5781 48.9231 65.5625 48.9231 65.5312C48.8294 65.2812 48.7669 65.1406 48.7356 65.1094C48.7356 65.0469 48.7044 64.9531 48.6419 64.8281C48.5481 64.5781 48.5012 64.4062 48.5012 64.3125C48.3762 64.0312 48.3137 63.8438 48.3137 63.75C48.3137 63.6562 48.2981 63.5781 48.2669 63.5156C48.2044 63.4219 48.1419 63.3438 48.0794 63.2812C48.0481 63.1875 48.0637 63.0781 48.1262 62.9531C47.97 62.7344 47.8762 62.4688 47.845 62.1562C47.845 61.8438 47.7669 61.5938 47.6106 61.4062C47.6731 61.25 47.6731 61.1094 47.6106 60.9844C47.5481 60.8594 47.5012 60.7188 47.47 60.5625C47.47 60.3438 47.4231 60.0938 47.3294 59.8125C47.2669 59.5625 47.1731 59.3438 47.0481 59.1562C47.0481 59 47.0325 58.875 47.0012 58.7812C47.0012 58.6562 46.97 58.5625 46.9075 58.5C46.9075 58.1562 46.8762 57.8906 46.8137 57.7031C46.7512 57.3594 46.72 57.1562 46.72 57.0938C46.7512 57.0312 46.7512 56.9688 46.72 56.9062C46.6262 56.5 46.5325 56.2656 46.4387 56.2031C46.3762 56.1094 46.3137 55.9844 46.2512 55.8281C46.1887 55.7031 46.1575 55.5781 46.1575 55.4531C46.1575 55.3281 46.1106 55.2344 46.0169 55.1719C45.9544 54.9531 45.9075 54.8281 45.8762 54.7969C45.845 54.7344 45.7981 54.6719 45.7356 54.6094C45.6731 54.2969 45.6262 54.125 45.595 54.0938C45.5637 54.0312 45.5169 53.9688 45.4544 53.9062C45.0794 53.6875 44.8294 53.6406 44.7044 53.7656C44.6106 53.8594 44.4856 53.9219 44.3294 53.9531C44.2669 54.1094 44.1887 54.2344 44.095 54.3281C44.0325 54.3906 43.9544 54.4531 43.8606 54.5156C43.8294 54.6719 43.7825 54.7969 43.72 54.8906C43.6887 54.9844 43.6731 55.1094 43.6731 55.2656C43.3606 55.3906 43.2356 55.6094 43.2981 55.9219C43.1106 56.0781 42.9856 56.1875 42.9231 56.25C42.8919 56.3125 42.8919 56.4062 42.9231 56.5312C42.8606 56.5938 42.7825 56.6562 42.6887 56.7188C42.6262 56.75 42.5637 56.7969 42.5012 56.8594C42.3137 57.1406 42.2044 57.3281 42.1731 57.4219C42.1731 57.5156 42.1419 57.625 42.0794 57.75C41.9544 58.1562 41.845 58.3906 41.7512 58.4531C41.6887 58.4844 41.6575 58.5781 41.6575 58.7344C41.5637 58.9844 41.5012 59.1719 41.47 59.2969C41.4075 59.4219 41.345 59.5312 41.2825 59.625C41.22 59.6875 41.1575 59.7812 41.095 59.9062C40.97 60.25 40.9075 60.4844 40.9075 60.6094C40.9387 60.7344 40.8919 60.8438 40.7669 60.9375C40.7356 61.0938 40.7044 61.2344 40.6731 61.3594C40.6419 61.4844 40.595 61.625 40.5325 61.7812C40.47 62.0312 40.4231 62.2031 40.3919 62.2969C40.3294 62.5156 40.2669 62.6719 40.2044 62.7656C40.1731 62.8281 40.1887 62.9062 40.2512 63C40.1887 63.0312 40.1419 63.0938 40.1106 63.1875C40.1106 63.2812 40.0794 63.375 40.0169 63.4688C39.9231 63.75 39.8606 63.9062 39.8294 63.9375C39.7981 63.9375 39.7669 63.9688 39.7356 64.0312C39.6731 64.2812 39.6419 64.4531 39.6419 64.5469C39.6419 64.6406 39.6106 64.7344 39.5481 64.8281C39.4856 65.0156 39.4544 65.1562 39.4544 65.25C39.4856 65.3125 39.47 65.3594 39.4075 65.3906C39.4075 65.7031 39.4075 65.9219 39.4075 66.0469C39.4387 66.1406 39.4544 66.2344 39.4544 66.3281C39.4544 66.3906 39.4544 66.4844 39.4544 66.6094C39.4544 66.7031 39.5169 66.7812 39.6419 66.8438C39.6419 67.0938 39.6106 67.25 39.5481 67.3125C39.4856 67.3438 39.4387 67.4062 39.4075 67.5C39.2512 67.5312 39.1419 67.5938 39.0794 67.6875C39.0169 67.7812 38.8762 67.8125 38.6575 67.7812C38.5012 67.875 38.3919 68 38.3294 68.1562C38.2669 68.3125 38.1575 68.4219 38.0012 68.4844C37.72 68.7344 37.5481 68.9531 37.4856 69.1406C37.1731 69.1406 37.0169 69.1875 37.0169 69.2812C37.0481 69.375 37.0325 69.4219 36.97 69.4219C36.9075 69.4844 36.8294 69.4844 36.7356 69.4219C36.6419 69.3906 36.5481 69.4062 36.4544 69.4688C36.3294 69.2812 36.22 69.1406 36.1262 69.0469C36.095 68.8906 36.095 68.7656 36.1262 68.6719C36.1887 68.5469 36.22 68.4062 36.22 68.25C36.1262 67.9375 36.0794 67.7344 36.0794 67.6406C36.1106 67.5156 36.1262 67.3906 36.1262 67.2656C36.0637 67.0156 36.0325 66.875 36.0325 66.8438C36.0637 66.8125 36.0794 66.7656 36.0794 66.7031C36.0794 66.5781 36.0325 66.3906 35.9387 66.1406C35.8762 65.8906 35.9075 65.7031 36.0325 65.5781C35.97 65.1719 35.9544 64.9062 35.9856 64.7812C36.0169 64.6562 35.9856 64.5312 35.8919 64.4062C35.8919 64.0625 35.8762 63.75 35.845 63.4688C35.845 63.1875 35.845 63.0625 35.845 63.0938C35.845 62.7812 35.8606 62.5781 35.8919 62.4844C35.9231 62.3594 35.9387 62.2344 35.9387 62.1094C35.97 61.9531 35.9856 61.8281 35.9856 61.7344C35.9856 61.6094 36.0169 61.5 36.0794 61.4062C36.0169 61.2188 35.9856 60.9531 35.9856 60.6094C35.9856 60.2344 35.97 59.8438 35.9387 59.4375C35.9075 59.1562 35.9075 58.8906 35.9387 58.6406C35.97 58.3594 35.9544 58.1094 35.8919 57.8906C35.9544 57.8281 35.97 57.75 35.9387 57.6562C35.9387 57.5312 35.9387 57.4219 35.9387 57.3281C35.97 57.0469 36.0012 56.8594 36.0325 56.7656C36.0637 56.6406 36.0794 56.5469 36.0794 56.4844C36.0794 56.3594 36.0637 56.2188 36.0325 56.0625C36.0325 55.9062 36.0794 55.75 36.1731 55.5938C36.1106 55.4375 36.095 55.2969 36.1262 55.1719C36.1575 55.0156 36.1887 54.8594 36.22 54.7031C36.2512 54.2344 36.2981 53.9062 36.3606 53.7188C36.4544 53.5 36.47 53.2969 36.4075 53.1094C36.47 52.7031 36.5169 52.4219 36.5481 52.2656C36.6106 52.0781 36.6731 51.9062 36.7356 51.75C36.6419 51.5938 36.6106 51.4531 36.6419 51.3281C36.7044 51.1719 36.7512 51.0156 36.7825 50.8594C36.8137 50.5469 36.8294 50.3438 36.8294 50.25C36.8294 50.125 36.845 50 36.8762 49.875C37.0637 49.4375 37.1262 49.0781 37.0637 48.7969C37.22 48.5469 37.2825 48.3906 37.2512 48.3281C37.2512 48.2656 37.2669 48.2031 37.2981 48.1406C37.3919 47.8281 37.4387 47.5 37.4387 47.1562C37.47 46.8125 37.5169 46.625 37.5794 46.5938C37.5169 46.375 37.5012 46.25 37.5325 46.2188C37.595 46.1562 37.6419 46.0938 37.6731 46.0312C37.7669 45.75 37.7981 45.5625 37.7669 45.4688C37.7669 45.375 37.7825 45.2969 37.8137 45.2344C37.9075 45.0156 37.9387 44.8594 37.9075 44.7656C37.9075 44.6406 37.9387 44.5312 38.0012 44.4375C38.0637 44.25 38.0794 44.1406 38.0481 44.1094C38.0481 44.0469 38.0637 43.9688 38.095 43.875C38.1887 43.4688 38.2512 43.25 38.2825 43.2188C38.3762 42.875 38.4387 42.7031 38.47 42.7031C38.5012 42.6719 38.5325 42.625 38.5637 42.5625C38.5325 42.375 38.5481 42.2344 38.6106 42.1406C38.7044 42.0156 38.72 41.8594 38.6575 41.6719C38.7825 41.5156 38.8762 41.3906 38.9387 41.2969C39.0012 41.2031 39.0481 41.1094 39.0794 41.0156C39.1419 40.9531 39.1731 40.875 39.1731 40.7812C39.2044 40.6562 39.2512 40.5625 39.3137 40.5C39.3762 40.1562 39.4075 39.9375 39.4075 39.8438C39.4075 39.75 39.4544 39.6875 39.5481 39.6562C39.5794 39.5 39.6262 39.3594 39.6887 39.2344C39.7512 39.0781 39.7669 38.9062 39.7356 38.7188C39.8606 38.4688 40.0012 38.2812 40.1575 38.1562C40.2512 37.75 40.3137 37.5156 40.345 37.4531C40.4075 37.3594 40.4387 37.2344 40.4387 37.0781C40.6887 36.6719 40.8606 36.4375 40.9544 36.375C41.0794 36.2812 41.1419 36.125 41.1419 35.9062C41.4544 35.5625 41.6419 35.2969 41.7044 35.1094C41.8606 34.8594 41.97 34.7031 42.0325 34.6406C42.095 34.5781 42.1575 34.5156 42.22 34.4531C42.3762 34.0469 42.5169 33.7656 42.6419 33.6094C42.7981 33.4531 42.9231 33.2656 43.0169 33.0469C43.3294 32.7031 43.5012 32.4844 43.5325 32.3906C43.9387 32.1406 44.2356 31.7969 44.4231 31.3594C44.6731 31.2344 44.8294 31.1406 44.8919 31.0781C44.9856 31.0156 45.1106 30.9531 45.2669 30.8906C45.4544 30.7031 45.5637 30.5781 45.595 30.5156C45.6575 30.4531 45.7512 30.4219 45.8762 30.4219L46.2981 30.0938C46.5169 29.8125 46.6419 29.6875 46.6731 29.7188C46.7044 29.7188 46.7356 29.7031 46.7669 29.6719C46.8294 29.6094 46.9231 29.5469 47.0481 29.4844C47.2044 29.3906 47.3294 29.3125 47.4231 29.25C47.6419 29.1875 47.7825 29.1406 47.845 29.1094C47.9075 29.0781 47.9544 29.0312 47.9856 28.9688C48.1419 29 48.2356 28.9844 48.2669 28.9219C48.2981 28.8281 48.3762 28.7812 48.5012 28.7812C48.8762 28.5625 49.1106 28.4688 49.2044 28.5C49.2981 28.5312 49.4231 28.5469 49.5794 28.5469C49.9544 28.4219 50.1575 28.3438 50.1887 28.3125C50.2825 28.3125 50.3606 28.2812 50.4231 28.2188C50.5169 28.1562 50.6262 28.0938 50.7512 28.0312C50.8762 27.9688 50.9856 27.9375 51.0794 27.9375C51.2044 27.9062 51.3294 27.8594 51.4544 27.7969C51.6106 27.8281 51.7356 27.875 51.8294 27.9375C51.9231 27.9688 52.0169 27.9062 52.1106 27.75C52.3606 27.8125 52.6106 27.8281 52.8606 27.7969C53.1419 27.7656 53.3606 27.8438 53.5169 28.0312C54.1106 28.2188 54.4387 28.375 54.5012 28.5C54.7512 28.5 54.9544 28.5469 55.1106 28.6406C55.2669 28.7031 55.4231 28.7812 55.5794 28.875ZM69.565 66.5156C69.4087 66.5781 69.2994 66.6406 69.2369 66.7031C69.1744 66.7344 69.065 66.7344 68.9087 66.7031C68.815 66.8281 68.69 66.9219 68.5337 66.9844C68.3775 67.0156 68.2681 67.1094 68.2056 67.2656C67.7369 67.4219 67.3775 67.5625 67.1275 67.6875C66.565 67.9375 66.1744 68.1094 65.9556 68.2031C65.7681 68.2969 65.5806 68.3906 65.3931 68.4844C65.1431 68.4219 64.9244 68.4375 64.7369 68.5312C64.5806 68.625 64.44 68.7188 64.315 68.8125C64.0337 68.8438 63.7525 68.8438 63.4712 68.8125C63.19 68.7812 62.9712 68.7656 62.815 68.7656C62.5025 68.7031 62.2994 68.6719 62.2056 68.6719C62.1431 68.6719 62.1119 68.6406 62.1119 68.5781C61.9869 68.6094 61.8931 68.6094 61.8306 68.5781C61.7681 68.5469 61.69 68.5312 61.5962 68.5312C61.2837 68.3438 61.0806 68.25 60.9869 68.25C60.8931 68.2188 60.815 68.1719 60.7525 68.1094C60.7525 68.0781 60.6744 68.0469 60.5181 68.0156C60.3931 67.9844 60.2994 68 60.2369 68.0625L59.5806 67.6406C59.2994 67.2656 59.1119 67.0781 59.0181 67.0781C58.7681 66.8281 58.6431 66.6406 58.6431 66.5156C58.5181 66.4844 58.4244 66.4375 58.3619 66.375C58.2994 66.3125 58.2056 66.2656 58.0806 66.2344C58.0806 65.9844 58.065 65.8438 58.0337 65.8125C58.0025 65.75 57.9712 65.6406 57.94 65.4844C57.7525 65.0781 57.6587 64.875 57.6587 64.875C57.6275 64.75 57.5806 64.6562 57.5181 64.5938C57.4556 64.5 57.4087 64.4219 57.3775 64.3594C57.3775 64.2969 57.3775 64.2344 57.3775 64.1719C57.4087 64.0781 57.4087 63.9688 57.3775 63.8438C57.2525 63.6562 57.19 63.4688 57.19 63.2812C57.1587 63.0625 57.1119 62.875 57.0494 62.7188C57.0181 62.5938 57.0025 62.4688 57.0025 62.3438C57.0337 62.2188 57.0337 62.125 57.0025 62.0625C56.9087 61.8125 56.8619 61.6719 56.8619 61.6406C56.8619 61.5781 56.8931 61.5312 56.9556 61.5C56.8619 61.4375 56.8462 61.3281 56.9087 61.1719C56.9712 61.0156 56.94 60.9062 56.815 60.8438C56.94 60.7188 56.9869 60.5625 56.9556 60.375C56.9244 60.1875 56.94 60.0156 57.0025 59.8594C57.0962 59.6406 57.1744 59.4062 57.2369 59.1562C57.3306 58.8438 57.3931 58.6562 57.4244 58.5938C57.4869 58.5 57.5337 58.4219 57.565 58.3594C57.6275 58.0781 57.6744 57.9219 57.7056 57.8906C57.7369 57.8281 57.7525 57.7656 57.7525 57.7031C57.8462 57.3281 57.9712 57.0625 58.1275 56.9062C58.2837 56.7188 58.3775 56.5 58.4087 56.25C58.5337 56.2188 58.6119 56.1406 58.6431 56.0156C58.7056 55.8594 58.7994 55.75 58.9244 55.6875C59.0181 55.4688 59.1119 55.3438 59.2056 55.3125C59.3306 55.25 59.4087 55.1562 59.44 55.0312C59.6275 55 59.7525 54.9375 59.815 54.8438C59.9087 54.75 59.9869 54.6406 60.0494 54.5156C60.2369 54.4844 60.3775 54.4219 60.4712 54.3281C60.5962 54.2031 60.7525 54.125 60.94 54.0938C61.0025 53.8438 61.1275 53.6875 61.315 53.625C61.5337 53.5312 61.7056 53.4062 61.8306 53.25C62.0806 53.25 62.2369 53.1562 62.2994 52.9688C62.7056 52.9062 62.9712 52.8125 63.0962 52.6875C63.2212 52.5625 63.3619 52.4688 63.5181 52.4062C63.7369 52.375 63.8775 52.3438 63.94 52.3125C64.0025 52.25 64.0962 52.2031 64.2212 52.1719C64.5025 51.9219 64.6431 51.8438 64.6431 51.9375C64.6744 52 64.7212 52 64.7837 51.9375C64.9087 51.9062 65.0181 51.8594 65.1119 51.7969C65.2369 51.7344 65.3775 51.6875 65.5337 51.6562C65.815 51.625 65.9869 51.6094 66.0494 51.6094C66.1431 51.5781 66.2369 51.5469 66.3306 51.5156C66.7681 51.4531 67.065 51.4375 67.2212 51.4688C67.3775 51.5312 67.5806 51.5938 67.8306 51.6562C68.0806 51.7188 68.2837 51.7344 68.44 51.7031C68.5025 51.7656 68.5806 51.8281 68.6744 51.8906C68.7681 51.9219 68.8462 52 68.9087 52.125C69.2212 52.3438 69.4087 52.5 69.4712 52.5938C69.5337 52.6875 69.6275 52.7656 69.7525 52.8281C69.9712 53.2031 70.1119 53.5 70.1744 53.7188C70.2681 53.9062 70.3775 54.1094 70.5025 54.3281C70.4087 54.5781 70.3775 54.7188 70.4087 54.75C70.44 54.75 70.4556 54.7812 70.4556 54.8438C70.4556 54.9062 70.44 55 70.4087 55.125C70.3775 55.2188 70.3619 55.3125 70.3619 55.4062C70.3931 55.6562 70.3931 55.8594 70.3619 56.0156C70.3306 56.1719 70.315 56.3281 70.315 56.4844C70.0025 56.9219 69.7212 57.2031 69.4712 57.3281C69.2525 57.4531 69.0806 57.6406 68.9556 57.8906C68.6744 57.9844 68.5337 58.0625 68.5337 58.125C68.565 58.1875 68.5494 58.2344 68.4869 58.2656C68.2369 58.4219 68.0962 58.5312 68.065 58.5938C68.0337 58.625 68.0181 58.6719 68.0181 58.7344C67.7681 58.8906 67.5337 59 67.315 59.0625C67.065 59.1562 66.8931 59.2656 66.7994 59.3906C66.7056 59.4844 66.5962 59.5625 66.4712 59.625C66.3775 59.6875 66.2525 59.7344 66.0962 59.7656C65.9712 59.7969 65.8619 59.8906 65.7681 60.0469C65.4244 60.1094 65.2056 60.25 65.1119 60.4688C64.7369 60.4688 64.5025 60.4688 64.4087 60.4688C64.315 60.4375 64.2369 60.4219 64.1744 60.4219C63.8306 60.6094 63.6587 60.6875 63.6587 60.6562C63.6587 60.625 63.6431 60.625 63.6119 60.6562C63.5181 60.6875 63.4087 60.6875 63.2837 60.6562C63.1587 60.625 63.0181 60.5938 62.8619 60.5625C62.7994 60.5312 62.7056 60.5469 62.5806 60.6094C62.4556 60.6406 62.3619 60.6562 62.2994 60.6562C62.1119 60.6875 61.9556 60.6562 61.8306 60.5625C61.7056 60.4375 61.5181 60.4062 61.2681 60.4688C61.1744 60.4062 61.0806 60.3438 60.9869 60.2812C60.9244 60.2188 60.8306 60.2188 60.7056 60.2812C60.6744 60.3125 60.6431 60.4219 60.6119 60.6094C60.6119 60.7969 60.6744 60.8594 60.7994 60.7969C60.6744 60.9531 60.6119 61.1406 60.6119 61.3594C60.6119 61.5469 60.69 61.7031 60.8462 61.8281C60.7525 62.1719 60.7837 62.4844 60.94 62.7656C61.1275 63.0156 61.2369 63.2969 61.2681 63.6094C61.4244 63.8594 61.5962 64.0625 61.7837 64.2188C62.0025 64.3438 62.1587 64.5312 62.2525 64.7812C62.5025 64.9062 62.7369 65.0469 62.9556 65.2031C63.2056 65.3594 63.4556 65.5312 63.7056 65.7188C63.8931 65.7812 64.0337 65.8438 64.1275 65.9062C64.2525 65.9375 64.3775 65.9531 64.5025 65.9531C64.7525 66.1719 64.9556 66.2812 65.1119 66.2812C65.4869 66.4062 65.7056 66.4844 65.7681 66.5156C65.8306 66.5469 65.8931 66.5625 65.9556 66.5625C66.2369 66.625 66.4087 66.6562 66.4712 66.6562C66.8462 66.5625 67.065 66.5156 67.1275 66.5156C67.2212 66.5156 67.315 66.4844 67.4087 66.4219C67.6587 66.2344 67.8462 66.125 67.9712 66.0938C68.0962 66.0312 68.2056 65.9531 68.2994 65.8594C68.5494 65.6719 68.6744 65.5625 68.6744 65.5312C68.7056 65.4688 68.7525 65.4219 68.815 65.3906C69.0337 65.0781 69.1431 64.9062 69.1431 64.875C69.2681 64.8438 69.3462 64.7812 69.3775 64.6875C69.44 64.5938 69.5025 64.5156 69.565 64.4531C69.7525 64.2344 69.8619 64.125 69.8931 64.125C69.9556 64.0938 70.0181 64.0625 70.0806 64.0312C70.2369 63.7188 70.3306 63.5469 70.3619 63.5156C70.4244 63.4531 70.5025 63.3906 70.5962 63.3281C71.0337 63.0781 71.2994 62.9062 71.3931 62.8125C71.6431 62.875 71.8306 62.8438 71.9556 62.7188C72.0806 62.5938 72.2212 62.5625 72.3775 62.625C72.44 62.9062 72.4712 63.0625 72.4712 63.0938C72.4712 63.125 72.4869 63.1562 72.5181 63.1875C72.4869 63.2812 72.3931 63.3438 72.2369 63.375C72.0806 63.375 72.0181 63.4531 72.0494 63.6094C71.8931 63.9844 71.7837 64.2344 71.7212 64.3594C71.69 64.4844 71.6119 64.5938 71.4869 64.6875C71.4244 64.9688 71.2525 65.1406 70.9712 65.2031C70.7837 65.3906 70.6587 65.5469 70.5962 65.6719C70.315 65.7344 70.1587 65.8594 70.1275 66.0469L69.565 66.5156ZM62.44 58.0312C62.565 58.0625 62.7212 58.1094 62.9087 58.1719C63.0962 58.2344 63.2212 58.2969 63.2837 58.3594C63.4712 58.3281 63.6431 58.3281 63.7994 58.3594C63.9556 58.3594 64.0962 58.375 64.2212 58.4062C64.6275 58.4688 64.8775 58.4688 64.9712 58.4062C65.065 58.3438 65.1744 58.3125 65.2994 58.3125C65.6431 58.3438 65.815 58.3438 65.815 58.3125C65.8462 58.25 65.8931 58.2031 65.9556 58.1719C66.3619 57.8594 66.6431 57.6719 66.7994 57.6094C66.7994 57.5156 66.815 57.4375 66.8462 57.375C66.9087 57.2812 66.9556 57.1875 66.9869 57.0938C66.9869 56.9688 66.9712 56.8438 66.94 56.7188C66.9087 56.5625 66.8931 56.4219 66.8931 56.2969C66.8931 55.9844 66.8619 55.7969 66.7994 55.7344C66.7369 55.6406 66.7369 55.5469 66.7994 55.4531C66.6431 55.2031 66.5025 55.0469 66.3775 54.9844C66.2837 54.9219 66.2369 54.8125 66.2369 54.6562C66.1119 54.5312 66.0181 54.4531 65.9556 54.4219C65.8931 54.3906 65.8619 54.3281 65.8619 54.2344C65.3619 53.9531 64.9712 53.8281 64.69 53.8594C64.3462 53.8906 64.1744 53.9062 64.1744 53.9062C64.1744 53.875 64.1587 53.8594 64.1275 53.8594C63.815 53.9844 63.6119 54.0469 63.5181 54.0469C63.4556 54.0156 63.3775 54.0312 63.2837 54.0938C63.0337 54.4062 62.8462 54.6094 62.7212 54.7031C62.6275 54.7656 62.5494 54.875 62.4869 55.0312C62.2056 55.375 61.9869 55.6094 61.8306 55.7344C61.7056 55.8594 61.6744 55.9844 61.7369 56.1094C61.6431 56.5156 61.6275 56.7656 61.69 56.8594C61.7837 56.9531 61.7994 57.0625 61.7369 57.1875C61.8619 57.3125 61.9869 57.4531 62.1119 57.6094C62.2369 57.7344 62.3462 57.875 62.44 58.0312Z" fill="white"/>
<path d="M85.096 15.352V13.576H96.04L96.472 14.872L107.224 41.56C111.128 33.08 114.76 24.184 118.12 14.872L118.552 13.576H129.496V15.352C126.808 15.448 125.192 15.736 124.648 16.216C124.424 16.44 124.312 16.664 124.312 16.888C124.312 17.112 124.616 25.96 125.224 43.432L125.272 44.776C125.368 45.768 125.656 46.408 126.136 46.696C126.648 46.952 127.656 47.128 129.16 47.224V49H115.864V47.224C116.824 47.16 117.56 47.08 118.072 46.984C118.616 46.888 119.096 46.68 119.512 46.36C119.96 46.04 120.184 45.592 120.184 45.016C120.088 38.84 119.736 30.616 119.128 20.344C114.68 30.104 110.664 39.656 107.08 49H105.208L92.92 20.152C92.44 28.408 92.2 36.696 92.2 45.016C92.2 46.168 93.624 46.872 96.472 47.128V49H85.144V47.272C86.584 47.112 87.576 46.696 88.12 46.024C88.664 45.32 89 44.2 89.128 42.664C89.768 32.808 90.136 25.16 90.232 19.72L90.28 17.032C90.28 16.424 89.848 16.024 88.984 15.832C88.152 15.608 86.856 15.448 85.096 15.352ZM132.862 49V47.224C133.822 47.16 134.558 47.08 135.07 46.984C135.614 46.888 136.094 46.68 136.51 46.36C136.958 46.04 137.182 45.592 137.182 45.016C137.31 40.92 137.374 36.056 137.374 30.424C137.374 24.76 137.31 20.376 137.182 17.272C137.15 16.568 136.894 16.104 136.414 15.88C135.966 15.624 135.134 15.464 133.918 15.4L133.246 15.352V13.576C134.974 13.704 137.15 13.768 139.774 13.768C142.398 13.768 144.43 13.72 145.87 13.624L158.494 13.576L159.07 14.104C159.006 14.36 158.782 15.816 158.398 18.472C158.014 21.128 157.806 22.632 157.774 22.984H156.142C155.534 19.72 155.15 17.896 154.99 17.512C154.862 17.096 154.638 16.776 154.318 16.552C153.262 16.264 151.326 16.12 148.51 16.12C145.726 16.12 144.046 16.232 143.47 16.456C142.894 16.648 142.59 17.08 142.558 17.752C142.494 19.48 142.43 23.288 142.366 29.176C146.878 29.176 150.814 29.096 154.174 28.936L153.694 32.488H152.878C151.726 31.656 148.206 31.24 142.318 31.24C142.254 35.976 142.222 40.568 142.222 45.016C142.222 45.784 142.798 46.296 143.95 46.552C145.102 46.776 147.15 46.888 150.094 46.888C153.07 46.888 154.798 46.696 155.278 46.312C156.078 45.608 156.894 43.656 157.726 40.456L158.398 37.864H160.174C160.078 38.696 159.982 40.632 159.886 43.672C159.79 46.712 159.742 48.488 159.742 49H132.862ZM162.893 14.104L163.421 13.576H191.549L192.077 14.104C191.917 16.824 191.837 19.976 191.837 23.56H190.157C189.325 20.552 188.781 18.792 188.525 18.28C188.397 17.896 188.253 17.544 188.093 17.224C187.869 17 187.581 16.856 187.229 16.792C185.565 16.472 184.173 16.312 183.053 16.312C181.933 16.312 180.973 16.392 180.173 16.552C179.917 22.6 179.789 32.088 179.789 45.016C179.789 45.592 180.077 46.056 180.653 46.408C181.261 46.728 181.869 46.936 182.477 47.032C183.085 47.128 183.917 47.224 184.973 47.32V49H169.613V47.32C172.173 47.096 173.741 46.696 174.317 46.12C174.605 45.832 174.749 45.464 174.749 45.016C174.845 38.808 174.893 33 174.893 27.592C174.893 22.152 174.861 18.472 174.797 16.552C173.997 16.392 173.037 16.312 171.917 16.312C170.797 16.312 169.405 16.472 167.741 16.792C167.389 16.856 167.101 17 166.877 17.224C166.717 17.544 166.573 17.896 166.445 18.28C166.189 18.792 165.645 20.552 164.813 23.56H163.133C163.133 19.976 163.053 16.824 162.893 14.104ZM88.792 105.168C88.12 104.24 87.56 102.96 87.112 101.328C86.664 99.664 86.44 97.584 86.44 95.088C86.44 92.56 87.096 90.224 88.408 88.08C89.272 86.736 90.776 85.52 92.92 84.432C95.064 83.312 96.84 82.752 98.248 82.752C101.096 82.752 103.528 83.664 105.544 85.488C107.56 87.312 108.568 90.16 108.568 94.032C108.568 97.872 107.864 100.864 106.456 103.008C104.568 105.536 102.728 107.2 100.936 108C99.72 108.544 98.456 108.816 97.144 108.816C95.832 108.816 94.76 108.72 93.928 108.528C93.096 108.368 92.2 108 91.24 107.424C90.312 106.848 89.496 106.096 88.792 105.168ZM91 95.712C91 99.168 91.656 101.648 92.968 103.152C94.312 104.656 96.248 105.408 98.776 105.408C99.736 105.408 100.44 105.328 100.888 105.168C103.096 104.304 104.2 100.976 104.2 95.184C104.2 92.464 103.832 90.48 103.096 89.232C102.392 87.952 101.16 87.04 99.4 86.496C98.504 86.272 97.688 86.16 96.952 86.16C96.216 86.16 95.672 86.176 95.32 86.208C95 86.24 94.568 86.336 94.024 86.496C93.48 86.656 93.064 86.928 92.776 87.312C92.488 87.664 92.184 88.16 91.864 88.8C91.288 89.952 91 92.256 91 95.712ZM112.053 84.336C113.365 84.208 114.677 83.904 115.989 83.424C117.333 82.944 118.197 82.704 118.581 82.704C118.997 82.704 119.285 82.896 119.445 83.28C119.605 83.632 119.685 84.288 119.685 85.248V85.92C123.365 83.84 126.245 82.8 128.325 82.8C130.437 82.8 131.893 83.376 132.693 84.528C133.493 85.648 133.893 86.944 133.893 88.416V104.448C133.893 105.152 134.037 105.632 134.325 105.888C134.645 106.144 135.349 106.304 136.437 106.368V108H126.645V106.368C127.861 106.272 128.613 106.08 128.901 105.792C129.221 105.504 129.381 104.992 129.381 104.256V89.04C129.381 88.24 129.125 87.632 128.613 87.216C128.133 86.768 127.621 86.512 127.077 86.448C126.565 86.352 125.957 86.304 125.253 86.304C124.581 86.304 123.669 86.496 122.517 86.88C121.365 87.232 120.469 87.632 119.829 88.08C119.797 89.968 119.749 91.936 119.685 93.984C119.557 98.144 119.493 101.024 119.493 102.624C119.493 104.192 119.653 105.2 119.973 105.648C120.293 106.064 121.077 106.304 122.325 106.368V108H112.245V106.368C113.205 106.24 113.877 106.064 114.261 105.84C114.677 105.584 114.933 105.216 115.029 104.736C115.157 103.904 115.221 102.944 115.221 101.856C115.221 100.736 115.173 98.144 115.077 94.08C114.981 89.984 114.917 87.872 114.885 87.744C114.853 87.584 114.805 87.44 114.741 87.312C114.709 87.152 114.645 87.024 114.549 86.928C114.485 86.832 114.421 86.752 114.357 86.688C114.325 86.624 114.245 86.56 114.117 86.496C113.989 86.432 113.893 86.4 113.829 86.4C113.765 86.368 113.637 86.336 113.445 86.304C113.285 86.272 113.173 86.24 113.109 86.208C112.917 86.176 112.613 86.16 112.197 86.16L112.053 84.336ZM139.532 108V106.368C139.788 106.336 140.124 106.288 140.54 106.224C140.956 106.128 141.228 106.08 141.356 106.08C141.484 106.048 141.676 105.984 141.932 105.888C142.22 105.792 142.396 105.712 142.46 105.648C142.524 105.584 142.636 105.456 142.796 105.264C142.956 105.072 143.036 104.88 143.036 104.688C143.068 104.496 143.116 104.24 143.18 103.92C143.244 103.568 143.276 103.2 143.276 102.816V92.496C143.276 89.2 143.228 83.936 143.132 76.704L143.084 74.4C143.052 73.6 142.86 73.088 142.508 72.864C142.156 72.64 141.452 72.528 140.396 72.528H139.772L139.676 70.944C142.044 70.656 143.804 70.384 144.956 70.128C146.108 69.84 146.748 69.696 146.876 69.696C147.42 69.696 147.692 69.936 147.692 70.416C147.756 73.04 147.788 76.32 147.788 80.256C147.788 84.192 147.708 88.4 147.548 92.88C147.388 97.328 147.308 100.848 147.308 103.44C147.308 104.656 147.484 105.408 147.836 105.696C148.22 105.952 149.228 106.176 150.86 106.368V108H139.532ZM159.604 78.96C159.092 78.96 158.516 78.576 157.876 77.808C157.236 77.008 156.916 76.432 156.916 76.08C156.916 75.696 157.172 75.024 157.684 74.064C158.228 73.104 158.788 72.624 159.364 72.624C159.94 72.624 160.58 72.928 161.284 73.536C161.988 74.112 162.34 74.784 162.34 75.552C162.34 76.32 162.004 77.088 161.332 77.856C160.692 78.592 160.116 78.96 159.604 78.96ZM154.084 108V106.368C155.716 106.24 156.74 106.032 157.156 105.744C157.572 105.424 157.78 104.784 157.78 103.824V93.84C157.78 91.056 157.7 89.12 157.54 88.032C157.412 86.944 157.188 86.256 156.868 85.968C156.548 85.648 155.94 85.488 155.044 85.488H154.324L154.228 83.904C156.596 83.68 158.356 83.44 159.508 83.184C160.692 82.896 161.332 82.752 161.428 82.752C161.972 82.752 162.244 83.008 162.244 83.52C162.244 83.904 162.228 84.96 162.196 86.688C162.068 93.536 162.004 99.44 162.004 104.4C162.004 105.04 162.26 105.52 162.772 105.84C163.284 106.128 164.1 106.304 165.22 106.368V108H154.084ZM168.447 84.336C169.759 84.208 171.071 83.904 172.383 83.424C173.727 82.944 174.591 82.704 174.975 82.704C175.391 82.704 175.679 82.896 175.839 83.28C175.999 83.632 176.079 84.288 176.079 85.248V85.92C179.759 83.84 182.639 82.8 184.719 82.8C186.831 82.8 188.287 83.376 189.087 84.528C189.887 85.648 190.287 86.944 190.287 88.416V104.448C190.287 105.152 190.431 105.632 190.719 105.888C191.039 106.144 191.743 106.304 192.831 106.368V108H183.039V106.368C184.255 106.272 185.007 106.08 185.295 105.792C185.615 105.504 185.775 104.992 185.775 104.256V89.04C185.775 88.24 185.519 87.632 185.007 87.216C184.527 86.768 184.015 86.512 183.471 86.448C182.959 86.352 182.351 86.304 181.647 86.304C180.975 86.304 180.063 86.496 178.911 86.88C177.759 87.232 176.863 87.632 176.223 88.08C176.191 89.968 176.143 91.936 176.079 93.984C175.951 98.144 175.887 101.024 175.887 102.624C175.887 104.192 176.047 105.2 176.367 105.648C176.687 106.064 177.471 106.304 178.719 106.368V108H168.639V106.368C169.599 106.24 170.271 106.064 170.655 105.84C171.071 105.584 171.327 105.216 171.423 104.736C171.551 103.904 171.615 102.944 171.615 101.856C171.615 100.736 171.567 98.144 171.471 94.08C171.375 89.984 171.311 87.872 171.279 87.744C171.247 87.584 171.199 87.44 171.135 87.312C171.103 87.152 171.039 87.024 170.943 86.928C170.879 86.832 170.815 86.752 170.751 86.688C170.719 86.624 170.639 86.56 170.511 86.496C170.383 86.432 170.287 86.4 170.223 86.4C170.159 86.368 170.031 86.336 169.839 86.304C169.679 86.272 169.567 86.24 169.503 86.208C169.311 86.176 169.007 86.16 168.591 86.16L168.447 84.336ZM197.174 88.848C197.686 87.664 198.918 86.384 200.87 85.008C202.822 83.6 204.582 82.896 206.15 82.896C207.75 82.896 209.11 83.072 210.23 83.424C211.35 83.776 212.23 84.304 212.87 85.008C213.51 85.68 214.022 86.352 214.406 87.024C214.822 87.664 215.094 88.48 215.222 89.472C215.478 91.072 215.606 92.288 215.606 93.12V94.512C214.582 95.152 212.902 95.472 210.566 95.472H200.726C200.726 98.896 200.982 101.088 201.494 102.048C202.262 103.456 203.222 104.336 204.374 104.688C205.11 104.912 205.974 105.024 206.966 105.024C209.75 105.024 212.294 103.888 214.598 101.616L215.654 102.72C215.526 102.848 215.222 103.168 214.742 103.68C214.262 104.16 213.942 104.48 213.782 104.64C213.622 104.8 213.318 105.104 212.87 105.552C212.422 105.968 212.07 106.256 211.814 106.416C211.59 106.576 211.254 106.816 210.806 107.136C210.39 107.456 210.022 107.68 209.702 107.808C209.414 107.936 209.046 108.096 208.598 108.288C207.862 108.576 206.998 108.72 206.006 108.72C204.086 108.72 202.438 108.352 201.062 107.616C199.718 106.848 198.71 105.824 198.038 104.544C196.758 102.208 196.118 99.424 196.118 96.192C196.118 92.96 196.47 90.512 197.174 88.848ZM200.822 93.312H203.558C207.814 93.312 210.342 93.024 211.142 92.448C211.142 91.072 210.918 89.888 210.47 88.896C209.638 86.976 208.166 86.016 206.054 86.016C203.942 86.016 202.534 86.56 201.83 87.648C201.158 88.704 200.822 90.592 200.822 93.312Z" fill="white"/>
</svg>
